HIERARCHY
ROOT hip
{
	OFFSET 0.000000 0.000000 0.000000 
	CHANNELS 6 Xposition Yposition Zposition Xrotation Zrotation Yrotation
	JOINT abdomen
	{
		OFFSET 0.000000 3.402643 0.000000 
		CHANNELS 3 Xrotation Zrotation Yrotation
		JOINT chest
		{
			OFFSET 0.000000 8.438565 -0.680529 
			CHANNELS 3 Xrotation Zrotation Yrotation
			JOINT neck
			{
				OFFSET 0.000000 10.207942 -0.272212 
				CHANNELS 3 Xrotation Zrotation Yrotation
				JOINT head
				{
					OFFSET 0.000000 3.130431 0.000000 
					CHANNELS 3 Xrotation Zrotation Yrotation
					End Site
					{
						OFFSET 0.000000 3.130435 0.000000 
					}
				}
			}
			JOINT lCollar
			{
				OFFSET 3.470700 6.669187 -0.816635 
				CHANNELS 3 Yrotation Zrotation Xrotation
				JOINT lShldr
				{
					OFFSET 3.198488 0.000000 0.000000 
					CHANNELS 3 Zrotation Yrotation Xrotation
					JOINT lForeArm
					{
						OFFSET 10.139888 0.000000 0.000000 
						CHANNELS 3 Yrotation Zrotation Xrotation
						JOINT lHand
						{
							OFFSET 8.370511 0.000000 0.000000 
							CHANNELS 3 Zrotation Yrotation Xrotation
							End Site
							{
								OFFSET 4.083176 0.000000 0.000000 
							}
						}
					}
				}
			}
			JOINT rCollar
			{
				OFFSET -3.470700 6.669187 -0.816635 
				CHANNELS 3 Yrotation Zrotation Xrotation
				JOINT rShldr
				{
					OFFSET -3.198488 0.000000 0.000000 
					CHANNELS 3 Zrotation Yrotation Xrotation
					JOINT rForeArm
					{
						OFFSET -10.139888 0.000000 0.000000 
						CHANNELS 3 Yrotation Zrotation Xrotation
						JOINT rHand
						{
							OFFSET -8.370511 0.000000 0.000000 
							CHANNELS 3 Zrotation Yrotation Xrotation
							End Site
							{
								OFFSET -4.083176 0.000000 0.000000 
							}
						}
					}
				}
			}
		}
	}
	JOINT lThigh
	{
		OFFSET 5.308129 -1.633274 1.361059 
		CHANNELS 3 Xrotation Zrotation Yrotation
		JOINT lShin
		{
			OFFSET -2.041588 -20.007561 0.000000 
			CHANNELS 3 Xrotation Zrotation Yrotation
			JOINT lFoot
			{
				OFFSET 0.000000 -19.190928 -1.224953 
				CHANNELS 3 Xrotation Yrotation Zrotation
				End Site
				{
					OFFSET 0.000000 -2.449906 4.627600 
				}
			}
		}
	}
	JOINT rThigh
	{
		OFFSET -5.308129 -1.633274 1.361059 
		CHANNELS 3 Xrotation Zrotation Yrotation
		JOINT rShin
		{
			OFFSET 2.041588 -20.007561 0.000000 
			CHANNELS 3 Xrotation Zrotation Yrotation
			JOINT rFoot
			{
				OFFSET 0.000000 -19.190928 -1.224953 
				CHANNELS 3 Xrotation Yrotation Zrotation
				End Site
				{
					OFFSET 0.000000 -2.449906 4.627600 
				}
			}
		}
	}
}
MOTION
Frames: 8
Frame Time: 0.016667
69.070595 42.347858 -5.993436 1.584820 9.625290 -3.181050 -12.584600 3.687720 -1.238340 9.781130 4.480460 -1.554590 12.655800 -14.430900 0.672801 11.349500 0.517523 0.351776 2.000000 -2.000000 0.000000 -88.762199 13.437400 171.705994 51.143101 -0.300622 0.106518 0.052588 -0.049887 -155.037003 -2.000000 2.000000 0.000000 58.449902 23.916800 158.740997 -77.275902 0.244962 0.133366 -0.057653 -0.022393 -125.359001 -16.974514 10.283727 -11.081387 42.985336 3.443748 2.688612 -0.421329 8.907140 2.355577 -32.663239 -9.617949 8.911901 58.054779 -1.448526 -3.816489 -21.415262 -7.633265 -3.271850 
71.327927 42.034077 -6.488860 1.637920 8.219340 -3.798590 -12.478600 4.445010 -0.427582 9.913220 4.146430 -1.090380 12.673200 -14.234800 0.385579 11.428200 0.662528 0.166320 2.000000 -2.000000 0.000000 90.622398 167.854004 -5.058070 51.504398 -0.299949 0.107057 0.051703 -0.047098 -153.992004 -2.000000 2.000000 0.000000 59.882999 28.081200 161.235992 -61.709499 0.279645 0.120392 -0.064440 -0.046111 -116.541000 -16.692020 11.532342 -13.020779 41.725521 3.694360 2.587390 -0.382027 4.904881 2.329614 -33.586914 -10.264253 10.275645 57.668114 -1.539305 -3.761272 -20.551958 -6.307128 -2.890901 
73.798012 41.818668 -6.903410 0.749370 7.938780 -4.964500 -12.239600 5.353130 0.817816 9.889010 4.472460 -0.548300 12.419700 -14.463500 -0.236940 11.359600 0.604660 -0.193530 2.000000 -2.000000 0.000000 89.499702 169.371002 -2.359200 51.660599 -0.299657 0.107289 0.050810 -0.044083 -152.869003 -2.000000 2.000000 0.000000 59.671700 32.581001 157.837997 -46.748501 0.308528 0.099582 -0.064062 -0.045084 -116.931999 -14.965855 10.771715 -12.713479 40.184177 3.778666 2.491164 -0.891240 0.315355 2.311701 -33.437641 -11.966216 12.828218 56.707874 -1.752408 -3.660259 -19.342733 -5.946713 -2.815586 
76.603317 41.754761 -7.312434 1.042570 6.834820 -4.817040 -12.718800 6.242820 1.935450 9.330430 3.802990 0.134814 13.060400 -14.239700 -1.153190 11.613700 0.652180 -0.653140 2.000000 -2.000000 0.000000 89.773003 169.244003 1.790900 53.486801 -0.296197 0.109936 0.052310 -0.049029 -154.714996 -2.000000 2.000000 0.000000 59.212200 35.299702 146.714996 -33.711300 0.328575 0.075882 -0.057432 -0.031059 -125.760002 -15.584446 10.092628 -11.488203 40.982197 3.450950 2.603465 -7.146199 -1.148678 2.101495 -33.059174 -13.332176 14.969529 54.056740 -2.080377 -3.462528 -17.448549 -6.326482 -3.026378 
79.483894 41.882198 -7.657368 2.017710 7.163570 -3.234140 -13.082700 6.578400 2.211780 9.312840 3.649480 0.378755 12.634000 -14.003500 -1.860570 11.447800 0.681825 -1.032100 2.000000 -2.000000 0.000000 89.655998 169.179993 3.753650 54.785702 -0.293685 0.111752 0.063560 -0.053434 -156.375000 -2.000000 2.000000 0.000000 57.145500 36.895302 127.739998 -22.812799 0.340870 0.053010 -0.054520 0.003505 -134.684998 -18.109591 7.012812 -8.836532 42.818996 3.094349 2.764028 -13.026124 -0.617573 1.810398 -32.117130 -16.142876 18.201080 50.265457 -2.605821 -3.201528 -15.513361 -8.371816 -3.576633 
82.442665 42.281757 -7.992023 2.655730 6.857930 -1.293930 -13.308100 7.007960 2.218300 9.382290 3.573700 0.466573 11.397400 -13.781800 -2.108340 10.998700 0.741594 -1.186570 2.000000 -2.000000 0.000000 89.665703 168.856995 4.182580 55.313000 -0.292654 0.112473 0.065103 -0.057616 -157.966995 -2.000000 2.000000 0.000000 55.472900 35.195099 112.060997 -20.205299 0.343151 0.047222 -0.055188 0.015890 -142.604996 -19.565691 4.029514 -6.071772 42.686016 2.685521 2.896111 -15.429104 1.952328 2.182073 -28.997089 -18.180054 22.512346 44.100563 -3.137700 -2.812149 -11.752075 -14.433843 -4.374725 
85.346046 42.863045 -8.334003 3.043860 5.968190 -0.981730 -13.537200 7.669720 2.733000 9.226340 3.523890 0.769143 10.144600 -14.069000 -2.260230 10.520000 0.685104 -1.326370 2.000000 -2.000000 0.000000 89.489304 168.001007 3.038000 54.961399 -0.293342 0.111993 0.067058 -0.062459 -159.832001 -2.000000 2.000000 0.000000 55.395100 31.037100 109.552002 -24.424101 0.339330 0.056533 -0.062977 0.051755 -155.740005 -19.943197 2.072915 -3.250945 41.602501 2.495645 2.904352 -16.643948 2.834368 2.218505 -26.443342 -17.393858 30.538332 40.178280 -3.743420 -2.508541 -8.649604 -25.140953 -4.626684 
88.070251 43.461166 -8.689104 3.335000 3.109970 -1.761960 -13.580000 8.337460 3.216540 9.447870 2.961140 1.118350 9.345610 -14.483300 -1.817450 10.285100 0.550004 -1.139040 2.000000 -2.000000 0.000000 89.957001 166.423996 0.739399 54.629398 -0.293990 0.111536 0.070719 -0.070496 -162.985992 -2.000000 2.000000 0.000000 56.384800 27.412300 111.598999 -30.088200 0.333143 0.068543 -0.085309 0.079606 -166.667999 -20.245270 2.287883 -3.618948 41.197224 2.416234 2.922343 -17.493649 2.673926 1.968719 -25.956436 -14.577183 31.001198 38.953007 -3.710177 -2.456296 -0.164182 -26.280291 -1.184025 
